HIERARCHY
ROOT Hips
{
  OFFSET -10.5418 79.71 204.814
  CHANNELS 6 Xposition Yposition Zposition Zrotation Xrotation Yrotation
  JOINT Spine
  {
    OFFSET 0 10 0
    CHANNELS 6 Xposition Yposition Zposition Zrotation Xrotation Yrotation
    JOINT Neck
    {
      OFFSET 0 30 0
      CHANNELS 6 Xposition Yposition Zposition Zrotation Xrotation Yrotation
      JOINT Head
      {
        OFFSET 0 8 0
        CHANNELS 6 Xposition Yposition Zposition Zrotation Xrotation Yrotation
        End Site
        {
          OFFSET 0 10 0
        }
      }
    }
    JOINT LeftArm
    {
      OFFSET 15 30 0
      CHANNELS 6 Xposition Yposition Zposition Zrotation Xrotation Yrotation
      JOINT LeftForeArm
      {
        OFFSET 25 0 0
        CHANNELS 6 Xposition Yposition Zposition Zrotation Xrotation Yrotation
        JOINT LeftHand
        {
          OFFSET 25 0 0
          CHANNELS 6 Xposition Yposition Zposition Zrotation Xrotation Yrotation
          End Site
          {
            OFFSET 10 0 0
          }
        }
      }
    }
    JOINT RightArm
    {
      OFFSET -15 30 0
      CHANNELS 6 Xposition Yposition Zposition Zrotation Xrotation Yrotation
      JOINT RightForeArm
      {
        OFFSET -25 0 0
        CHANNELS 6 Xposition Yposition Zposition Zrotation Xrotation Yrotation
        JOINT RightHand
        {
          OFFSET -25 0 0
          CHANNELS 6 Xposition Yposition Zposition Zrotation Xrotation Yrotation
          End Site
          {
            OFFSET -10 0 0
          }
        }
      }
    }
  }
  JOINT LeftUpLeg
  {
    OFFSET 10 -10 0
    CHANNELS 6 Xposition Yposition Zposition Zrotation Xrotation Yrotation
    JOINT LeftLeg
    {
      OFFSET 0 -35 0
      CHANNELS 6 Xposition Yposition Zposition Zrotation Xrotation Yrotation
      JOINT LeftFoot
      {
        OFFSET 0 -40 0
        CHANNELS 6 Xposition Yposition Zposition Zrotation Xrotation Yrotation
        End Site
        {
          OFFSET 0 0 15
        }
      }
    }
  }
  JOINT RightUpLeg
  {
    OFFSET -10 -10 0
    CHANNELS 6 Xposition Yposition Zposition Zrotation Xrotation Yrotation
    JOINT RightLeg
    {
      OFFSET 0 -35 0
      CHANNELS 6 Xposition Yposition Zposition Zrotation Xrotation Yrotation
      JOINT RightFoot
      {
        OFFSET 0 -40 0
        CHANNELS 6 Xposition Yposition Zposition Zrotation Xrotation Yrotation
        End Site
        {
          OFFSET 0 0 15
        }
      }
    }
  }
}
MOTION
Frames:	11
Frame Time:	0.0333333
19.2105 83.2671 151.96 0 0 -0 0 10 0 -8.84416e-08 -5.28931e-08 4.38654e-08 -3.55271e-15 30 0 1.33748e-07 5.28931e-08 5.96928e-08 0 8 0 -4.882e-08 3.46349e-17 3.0932e-07 15 30 0 -7.99999 4.82487e-07 1.75788e-05 25 -1.42109e-14 0 -1.41036e-05 -4.6059e-07 -3.20004e-05 25 0 0 4.83693e-15 1.26952e-13 1.4489e-05 -15 30 0 7.99999 3.49319e-06 -1.73614e-05 -25 0 2.84217e-14 1.1072e-05 -6.8986e-06 2.94884e-05 -25 -1.42109e-14 0 2.55508e-06 3.41509e-06 -1.20742e-05 10 -10 0 0 0 -0 0 -35 0 -0 -6.83019e-06 -0 0 -40 0 0.0419192 16.9491 -4.96641 -10 -10 0 3.41509e-06 0 -0 0 -35 0 -3.41509e-06 -6.83019e-06 -0 0 -40 0 -0.000896224 13.521 13.5352 
15.6867 80.0884 152.408 11.0912 22.9554 -32.411 0 10 -1.42109e-14 7.01178 -23.6001 -3.91034 0 30 2.84217e-14 -2.96198 -11.1576 -4.60387 1.42109e-14 8 0 2.40944 9.63108 -5.32836 15 30 0 -41.8968 43.9072 -15.2249 25 -2.84217e-14 7.10543e-15 28.866 -15.8246 -56.7379 25 0 0 3.15158e-05 -65.3099 3.46868e-05 -15 30 0 22.4065 48.5909 39.5776 -25 0 -2.84217e-14 -30.0101 -17.6054 60.0316 -25 0 0 -1.15882e-05 -49.5124 -1.85962e-05 10 -10 0 -2.51319 -47.5768 -33.9871 -2.84217e-14 -35 0 0.26339 36.15 -0.731253 0 -40 0 -0.0842422 2.51632 -2.83029 -10 -10 -1.42109e-14 13.3913 -37.1582 28.6347 -3.55271e-15 -35 0 -0.299164 39.6971 0.830241 -3.55271e-15 -40 0 -0.444355 -4.68027 7.5626 
15.6326 79.9309 153.167 12.0342 22.8986 -34.563 1.42109e-14 10 0 6.33683 -23.4493 -3.73152 -1.42109e-14 30 0 -2.66141 -11.6191 -4.51565 1.42109e-14 8 1.42109e-14 2.94248 9.21449 -5.35752 15 30 -1.42109e-14 -41.9771 44.0418 -14.308 25 2.84217e-14 -7.10543e-15 28.9529 -15.9529 -56.9796 25 2.84217e-14 -1.42109e-14 3.12963e-05 -65.1576 3.44875e-05 -15 30 0 23.0921 48.8313 40.0157 -25 0 -2.84217e-14 -29.8358 -17.3186 59.5094 -25 1.42109e-14 0 -1.14266e-05 -49.1871 -1.84736e-05 10 -10 0 -2.04458 -46.5073 -37.4231 0 -35 7.10543e-15 0.193131 30.1448 -0.581653 0 -40 -7.10543e-15 -0.10718 2.455 -2.21783 -10 -10 0 13.2844 -37.2624 29.8719 7.10543e-15 -35 0 -0.300811 39.7839 0.827173 0 -40 1.42109e-14 -0.441747 -5.14654 8.09055 
15.613 79.7824 153.89 12.7813 22.7743 -36.7576 -1.42109e-14 10 0 5.62063 -23.1078 -3.52588 0 30 2.84217e-14 -2.25367 -12.186 -4.3852 0 8 0 3.51304 8.99947 -5.34994 15 30 0 -41.6065 44.0638 -13.6911 25 0 7.10543e-15 29.1125 -16.1904 -57.4251 25 0 0 3.12761e-05 -65.1435 3.44692e-05 -15 30 0 23.9334 48.9506 40.2008 -25 -2.84217e-14 -2.84217e-14 -29.7029 -17.1051 59.1185 -25 -1.42109e-14 0 -1.12962e-05 -48.9213 -1.83751e-05 10 -10 0 -1.47135 -46.4812 -36.8487 0 -35 0 0.0960175 26.9671 -0.508279 0 -40 0 0.0520165 1.86416 -6.36673 -10 -10 0 13.3925 -37.2684 31.1498 0 -35 0 -0.303761 39.9307 0.827808 0 -40 -2.84217e-14 -0.430688 -5.67379 8.66505 
15.6562 79.6487 154.669 13.3423 22.5467 -39.2883 0 10 -1.42109e-14 5.11632 -22.6837 -2.96677 0 30 0 -2.04867 -12.6533 -4.16896 0 8 1.42109e-14 4.3282 8.95028 -5.37323 15 30 0 -41.3674 43.9802 -13.0929 25 2.84217e-14 0 29.3311 -16.5227 -58.044 25 0 0 3.11169e-05 -65.0318 3.43248e-05 -15 30 -1.42109e-14 24.883 49.0842 40.117 -25 0 -1.42109e-14 -29.5755 -16.9034 58.7479 -25 0 0 -1.12089e-05 -48.7418 -1.83094e-05 10 -10 0 -0.697173 -46.1476 -34.8066 0 -35 0 0.113813 26.2038 -0.490521 -2.84217e-14 -40 0 0.482398 4.50921 -10.7869 -10 -10 -2.84217e-14 13.7517 -36.9138 33.0396 0 -35 0 -0.302507 39.849 0.828597 0 -40 0 -0.417731 -6.07349 9.07827 
15.7948 79.5663 155.492 14.1202 22.3598 -42.177 -1.42109e-14 10 -7.10543e-15 4.46284 -22.4898 -2.52632 0 30 1.42109e-14 -1.61936 -13.1633 -3.80192 0 8 0 5.08015 9.11391 -5.19058 15 30 1.42109e-14 -41.5036 43.4606 -12.2181 25 0 0 29.5673 -16.89 -58.7232 25 0 1.42109e-14 3.07481e-05 -64.7694 3.39908e-05 -15 30 1.42109e-14 25.689 49.3477 40.2363 -25 1.42109e-14 1.42109e-14 -29.4519 -16.7099 58.3908 -25 -1.42109e-14 -1.42109e-14 -1.11094e-05 -48.5357 -1.82347e-05 10 -10 -2.13163e-14 0.368571 -45.7749 -31.4766 0 -35 0 0.117142 26.6296 -0.490831 2.84217e-14 -40 0 0.59171 5.58893 -10.744 -10 -10 -1.42109e-14 14.1825 -36.7619 35.4971 0 -35 0 -0.302003 39.8071 0.832696 7.10543e-15 -40 1.42109e-14 -0.417948 -6.36424 9.26152 
15.9288 79.5559 156.269 15.5485 21.5346 -45.2359 0 10 0 2.39785 -22.2712 -2.29812 0 30 0 -1.03989 -13.5859 -3.5489 0 8 1.42109e-14 6.13081 9.08345 -5.2008 15 30 0 -41.2281 42.8944 -11.6131 25 2.84217e-14 0 29.7952 -17.2536 -59.3906 25 2.84217e-14 0 3.01228e-05 -64.3125 3.34262e-05 -15 30 0 27.4784 49.6655 39.644 -25 1.42109e-14 0 -29.3975 -16.6241 58.2322 -25 0 0 -1.0916e-05 -48.13 -1.80902e-05 10 -10 0 0.251359 -45.2189 -28.5597 -2.84217e-14 -35 0 0.118335 26.6794 -0.494509 -2.84217e-14 -40 -7.10543e-15 0.522469 5.80236 -9.89889 -10 -10 -7.10543e-15 13.9254 -36.9551 38.2653 0 -35 2.84217e-14 -0.312658 40.3475 0.849618 7.10543e-15 -40 1.42109e-14 -0.444574 -6.59214 9.1659 
16.0116 79.5453 156.936 17.4082 20.1684 -48.2032 1.42109e-14 10 0 -0.928371 -22.0944 -2.23973 0 30 0 -0.427906 -13.8751 -3.52442 -1.42109e-14 8 -1.42109e-14 7.35947 8.78145 -5.49322 15 30 0 -40.126 42.5758 -11.5428 25 -2.84217e-14 0 30.0106 -17.6061 -60.033 25 -2.84217e-14 1.42109e-14 2.91552e-05 -63.5744 3.2557e-05 -15 30 0 30.1438 50.0197 38.2363 -25 1.42109e-14 1.42109e-14 -29.439 -16.6904 58.3546 -25 0 0 -1.07178e-05 -47.7077 -1.79431e-05 10 -10 -2.13163e-14 -0.661757 -44.6359 -26.3819 2.84217e-14 -35 0 0.116241 26.4769 -0.498147 0 -40 7.10543e-15 0.532574 6.22323 -9.60792 -10 -10 -7.10543e-15 13.1407 -37.6488 40.9602 0 -35 -2.84217e-14 -0.337459 41.6034 0.888115 0 -40 0 -0.443067 -6.97194 9.39349 
16.0773 79.5553 157.532 18.5634 19.0766 -51.308 0 10 -7.10543e-15 -3.27003 -21.8164 -1.71596 -1.42109e-14 30 -1.42109e-14 -0.0147844 -14.2228 -3.49851 -1.42109e-14 8 -1.42109e-14 8.35447 8.7161 -5.81958 15 30 0 -38.8418 42.3326 -11.824 25 2.84217e-14 -1.42109e-14 30.1826 -17.893 -60.5526 25 0 0 2.83411e-05 -62.9222 3.183e-05 -15 30 -2.84217e-14 32.268 50.3849 36.9832 -25 0 0 -29.4919 -16.7718 58.5052 -25 -1.42109e-14 -1.42109e-14 -1.0743e-05 -47.7616 -1.79617e-05 10 -10 -7.10543e-15 -0.460871 -44.2326 -23.4182 2.84217e-14 -35 7.10543e-15 0.123353 27.1037 -0.511895 0 -40 7.10543e-15 0.4846 5.87052 -9.44151 -10 -10 -7.10543e-15 13.0029 -38.0094 43.388 -7.10543e-15 -35 0 -0.352699 42.2996 0.908884 0 -40 -1.42109e-14 -0.333698 -7.09463 10.3336 
16.2839 79.5622 158.18 19.179 18.5106 -54.0393 0 10 -7.10543e-15 -4.36163 -21.6622 -1.17633 -1.42109e-14 30 0 -0.0550568 -14.4881 -3.49903 0 8 0 9.07335 8.90385 -6.07807 15 30 0 -37.8453 42.1458 -12.3733 25 0 -1.42109e-14 30.3113 -18.1124 -60.9484 25 2.84217e-14 -1.42109e-14 2.79184e-05 -62.5717 3.14542e-05 -15 30 0 33.9167 50.6759 35.7345 -25 0 0 -29.4984 -16.7814 58.5198 -25 0 0 -1.0931e-05 -48.1618 -1.81014e-05 10 -10 -7.10543e-15 0.0136411 -44.1115 -20.9638 2.84217e-14 -35 0 0.134198 28.1375 -0.534793 0 -40 0 0.361896 5.23323 -8.68054 -10 -10 -7.10543e-15 13.03 -38.3148 44.6633 -7.10543e-15 -35 0 -0.356382 42.4156 0.913427 7.10543e-15 -40 -1.42109e-14 -0.17129 -7.19521 11.6608 
16.5385 79.5588 158.857 19.8714 17.9431 -56.5641 0 10 -7.10543e-15 -5.28526 -21.7467 -0.867572 0 30 0 -0.233083 -14.5834 -3.48494 -1.42109e-14 8 0 9.64331 9.15133 -6.22829 15 30 0 -37.1245 42.0068 -12.8491 25 0 1.42109e-14 30.43 -18.3145 -61.3113 25 0 -2.84217e-14 2.73704e-05 -62.1047 3.09689e-05 -15 30 0 35.5291 51.0922 34.3805 -25 0 0 -29.4987 -16.7824 58.5249 -25 0 1.42109e-14 -1.09496e-05 -48.2009 -1.81152e-05 10 -10 -7.10543e-15 0.0132628 -43.9103 -19.345 2.84217e-14 -35 0 0.140416 28.7329 -0.548271 0 -40 0 0.226474 4.9367 -7.36267 -10 -10 7.10543e-15 12.625 -38.8118 45.0238 0 -35 2.84217e-14 -0.354846 42.3104 0.911249 7.10543e-15 -40 -1.42109e-14 0.0154078 -7.33619 13.1495 
